<svg width="22" height="23" viewBox="0 0 22 23" fill="none" xmlns="http://www.w3.org/2000/svg">
  <path d="M11.0001 3.25001C11.1211 3.25001 11.2411 3.25001 11.3603 3.25001C10.1827 4.34424 9.42576 5.81653 9.22107 7.41096C9.01638 9.00539 9.37687 10.6211 10.2399 11.9773C11.1029 13.3336 12.4139 14.3445 13.9449 14.8344C15.476 15.3242 17.1303 15.2621 18.6203 14.6588C18.0471 16.038 17.1104 17.2356 15.9099 18.1241C14.7094 19.0125 13.2903 19.5585 11.8039 19.7036C10.3175 19.8488 8.81954 19.5877 7.46987 18.9483C6.1202 18.3089 4.96941 17.3151 4.14026 16.0729C3.31111 14.8307 2.83471 13.3868 2.76187 11.8951C2.68902 10.4034 3.02247 8.91986 3.72664 7.60281C4.43082 6.28576 5.4793 5.18456 6.76025 4.41668C8.04121 3.6488 9.50658 3.24304 11.0001 3.24268V3.25001Z" stroke="#25262B" stroke-width="1.83333" stroke-linecap="round" stroke-linejoin="round"/>
</svg>
