<svg width="19" height="18" viewBox="0 0 19 18" fill="none" xmlns="http://www.w3.org/2000/svg">
  <path d="M5.41058 15.5935C5.41058 16.9138 4.34532 17.9845 3.03017 17.9845C1.71619 17.9845 0.650391 16.9138 0.650391 15.5935C0.650391 14.2714 1.71619 13.2009 3.03017 13.2009C4.34532 13.2009 5.41058 14.2713 5.41058 15.5935Z" fill="white"/>
  <path d="M0.5 8.9576C0.5 9.28847 0.757693 9.56043 1.08654 9.57728C3.43948 9.69786 5.02196 10.5584 6.47946 12.0304C7.91171 13.4754 8.82277 15.5487 8.97923 17.4306C9.00599 17.7521 9.27332 17.9999 9.5944 17.9999H11.8063C11.9757 17.9999 12.1378 17.93 12.2544 17.8065C12.3711 17.683 12.4321 17.5168 12.4234 17.3467C12.1085 11.1475 7.32615 6.43671 1.1493 6.12712C0.98024 6.11861 0.815232 6.18023 0.692548 6.2974C0.569904 6.41456 0.5 6.57719 0.5 6.74727V8.9576Z" fill="white"/>
  <path d="M0.5 2.83396C0.5 3.16754 0.761867 3.44083 1.09356 3.45404C8.6695 3.75519 14.759 9.79618 15.0626 17.4038C15.0759 17.7366 15.3482 17.9999 15.6797 17.9999H17.882C18.0496 17.9999 18.21 17.9315 18.3264 17.8104C18.4429 17.6893 18.5053 17.5259 18.4997 17.3576C18.1781 7.77294 10.6823 0.319769 1.13897 0.000344912C0.97158 -0.00526039 0.809146 0.0576523 0.688726 0.174658C0.568305 0.291586 0.5 0.452689 0.5 0.620966V2.83396Z" fill="white"/>
</svg>
